<?xml version="1.0" standalone="no"?>
<!DOCTYPE svg PUBLIC "-//W3C//DTD SVG 20010904//EN"
 "http://www.w3.org/TR/2001/REC-SVG-20010904/DTD/svg10.dtd">
<svg version="1.0" xmlns="http://www.w3.org/2000/svg"
 width="1024.000000pt" height="1024.000000pt" viewBox="0 0 1024.000000 1024.000000"
 preserveAspectRatio="xMidYMid meet">

<g transform="translate(0.000000,1024.000000) scale(0.100000,-0.100000)"
fill="#FFFFFF" stroke="none">
<path d="M3550 5160 l0 -1240 45 0 45 0 0 1240 0 1240 -45 0 -45 0 0 -1240z"/>
<path d="M1862 6309 c-203 -43 -399 -147 -534 -286 l-47 -48 38 -60 c235 -363
484 -752 488 -762 3 -8 -15 -48 -40 -91 -25 -42 -94 -161 -155 -264 l-110
-188 -39 43 c-150 164 -215 418 -168 662 l15 77 -74 107 c-40 58 -89 130 -109
159 l-37 54 -25 -58 c-130 -293 -135 -640 -15 -940 65 -162 183 -325 315 -437
79 -67 202 -143 213 -133 4 4 122 190 263 414 l255 407 200 6 c109 4 293 10
408 13 l208 7 -7 -38 c-11 -62 -55 -161 -106 -238 -158 -243 -441 -390 -713
-372 l-91 7 -87 -147 c-48 -81 -85 -150 -83 -154 3 -4 57 -15 121 -24 590 -90
1129 273 1275 858 21 85 38 350 25 401 l-6 26 -570 0 -570 0 -67 103 c-128
198 -295 461 -300 472 -5 15 75 50 175 76 99 26 286 28 386 5 213 -50 393
-173 507 -344 26 -40 51 -82 54 -92 6 -19 17 -20 176 -20 93 0 169 4 169 8 0
49 -81 230 -148 331 -112 170 -311 325 -520 406 -197 76 -463 97 -670 54z"/>
<path d="M4327 5771 c-77 -26 -129 -61 -165 -113 -40 -59 -53 -104 -53 -187 0
-87 23 -143 83 -196 52 -47 112 -73 273 -119 147 -42 200 -71 222 -124 43
-102 -45 -203 -177 -202 -103 1 -186 47 -225 123 l-24 49 -96 1 -97 2 7 -45
c15 -97 59 -163 146 -220 84 -54 173 -74 307 -68 140 7 207 32 278 103 61 60
84 122 84 220 0 174 -87 258 -340 325 -191 51 -246 90 -244 171 4 138 224 189
336 77 22 -22 39 -51 44 -72 l6 -36 95 0 96 0 -7 48 c-14 107 -86 200 -195
250 -49 23 -71 27 -176 29 -96 2 -131 -1 -178 -16z"/>
<path d="M7090 5226 l0 -546 100 0 100 0 0 195 0 195 84 0 c205 0 324 37 405
126 61 67 81 123 81 229 0 155 -51 250 -167 307 l-67 33 -268 3 -268 3 0 -545z
m445 373 c56 -16 111 -73 120 -127 16 -97 -13 -165 -86 -202 -32 -17 -59 -20
-159 -20 l-120 0 0 180 0 180 103 0 c56 0 120 -5 142 -11z"/>
<path d="M8833 5490 c-132 -14 -256 -108 -305 -228 -19 -49 -23 -75 -23 -187
0 -120 2 -134 26 -186 68 -144 193 -220 359 -220 184 1 311 75 379 220 24 52
26 66 26 187 l0 130 -38 76 c-42 86 -92 136 -172 174 -44 21 -71 27 -165 38
-14 1 -53 -1 -87 -4z m189 -192 c131 -100 109 -380 -35 -455 -42 -21 -143 -21
-184 0 -44 23 -89 82 -102 133 -15 58 -13 171 3 217 36 100 95 139 207 135 64
-3 81 -7 111 -30z"/>
<path d="M6422 5471 c-95 -33 -160 -107 -176 -203 l-7 -38 94 0 93 0 15 32
c30 68 116 96 194 64 44 -19 65 -53 72 -119 l6 -55 -160 -4 c-150 -3 -162 -5
-216 -32 -69 -33 -102 -78 -119 -158 -17 -81 1 -153 53 -211 54 -62 110 -82
219 -81 92 1 136 15 189 60 l31 26 0 -36 0 -36 95 0 95 0 0 268 c0 291 -8 353
-53 421 -33 49 -80 86 -136 106 -62 22 -221 20 -289 -4z m288 -486 c0 -105
-96 -185 -208 -172 -58 6 -92 41 -92 93 0 76 31 97 154 104 49 3 102 6 118 8
26 2 28 0 28 -33z"/>
<path d="M8295 5475 c-22 -8 -57 -32 -77 -56 l-38 -42 0 52 0 51 -100 0 -100
0 0 -400 1 -400 99 0 99 0 3 253 3 254 27 40 c35 53 80 73 162 73 l66 0 0 95
0 95 -52 0 c-29 -1 -71 -7 -93 -15z"/>
<path d="M4964 5463 c82 -283 219 -744 226 -760 9 -22 15 -23 123 -23 l113 0
64 253 c34 138 66 258 70 265 3 7 33 -85 65 -205 32 -120 64 -239 72 -265 l14
-48 113 0 113 0 116 393 c65 215 117 395 117 400 0 4 -42 7 -92 7 l-93 0 -81
-288 c-45 -158 -84 -280 -87 -272 -3 8 -39 134 -79 280 l-74 265 -95 3 -95 3
-79 -282 c-44 -155 -81 -275 -84 -268 -3 8 -39 136 -82 284 l-76 270 -97 3
c-90 3 -97 1 -92 -15z"/>
</g>
</svg> 